<?xml version="1.0" encoding="utf-8"?>
<!-- Generator: Adobe Illustrator 19.2.1, SVG Export Plug-In . SVG Version: 6.00 Build 0)  -->
<svg version="1.1" id="Laag_1" xmlns="http://www.w3.org/2000/svg" xmlns:xlink="http://www.w3.org/1999/xlink" x="0px" y="0px"
	 viewBox="0 0 252.3 376.5" style="enable-background:new 0 0 252.3 376.5;" xml:space="preserve">
<style type="text/css">
	.st0{fill:#FFFF00;}
</style>
<g>
	<rect x="0" y="0" transform="matrix(-1 8.980670e-11 -8.980670e-11 -1 252.33 252.33)" class="st0" width="252.3" height="252.3"/>
	<g>
		<path d="M53.8,96.2C48.4,90.8,45,83.3,45,75c0-16.6,13.4-30,30-30s30,13.4,30,30v72.3L53.8,96.2z"/>
		<path d="M177.3,147.3c7.7,0,15.4,2.9,21.2,8.8c11.7,11.7,11.7,30.7,0,42.4s-30.7,11.7-42.4,0L105,147.4L177.3,147.3z"/>
	</g>
</g>
<g>
	<path d="M14.7,292v50.6h19.5v12.3h-34V292H14.7z"/>
	<path d="M73,312.9h13.6v42H73v-5.1c-3.7,5.7-9,6.5-12.4,6.5c-6,0-11.1-1.5-15.7-6.4c-4.4-4.7-6.1-10.2-6.1-15.7
		c0-7.1,2.6-13.1,6.5-17c3.7-3.7,8.8-5.8,14.6-5.8c3.6,0,9.3,0.8,13.2,6.1V312.9z M55.8,326.2c-1.4,1.4-3.1,3.9-3.1,7.6
		c0,3.8,1.6,6.2,2.8,7.5c1.9,2,4.8,3.3,8,3.3c2.7,0,5.3-1.1,7.1-2.9c1.8-1.7,3.3-4.3,3.3-7.9c0-3-1.1-5.8-3.1-7.7
		c-2.1-2-5.1-2.9-7.5-2.9C60.3,323.1,57.6,324.4,55.8,326.2z"/>
	<path d="M129.1,312.9h13.6v39.5c0,5.9-0.3,12.6-5.2,17.9c-5.2,5.6-13.1,6.2-17.7,6.2c-5.6,0-12.3-0.8-17.5-5.4
		c-2.6-2.3-5.4-5.8-6.3-11.1h14.8c0.6,2.2,1.9,3.4,3,4.1c1.6,1,3.9,1.4,5.8,1.4c3.9,0,5.8-1.4,6.8-2.3c2.6-2.5,2.7-7,2.7-8.8v-4.8
		c-1.6,2.6-4.8,6.3-12.5,6.3c-6.5,0-11.5-2.1-15.4-5.9c-3.4-3.5-6.1-8.6-6.1-15.8c0-7.2,2.6-13.1,6.2-16.8c2.5-2.6,7.4-6,15.3-6
		c7.6,0,11,4.1,12.5,6.3V312.9z M112.2,326c-2.1,2-3.2,5.3-3.2,7.8c0,2.7,1,5.6,2.9,7.5c1.9,2,4.4,3,7.6,3c3.6,0,5.9-1.4,7.4-2.7
		c2.1-2,3.3-4.9,3.3-8c0-3.3-1.4-6-3.2-7.7c-2-1.8-4.9-2.6-7.4-2.6C116.7,323.2,113.9,324.4,112.2,326z"/>
	<path d="M185.5,312.9H199v42h-13.6v-5.1c-3.7,5.7-9,6.5-12.4,6.5c-6,0-11.1-1.5-15.7-6.4c-4.4-4.7-6.1-10.2-6.1-15.7
		c0-7.1,2.6-13.1,6.5-17c3.7-3.7,8.8-5.8,14.6-5.8c3.6,0,9.3,0.8,13.2,6.1V312.9z M168.2,326.2c-1.4,1.4-3.1,3.9-3.1,7.6
		c0,3.8,1.6,6.2,2.8,7.5c1.9,2,4.8,3.3,8,3.3c2.7,0,5.3-1.1,7.1-2.9c1.8-1.7,3.3-4.3,3.3-7.9c0-3-1.1-5.8-3.1-7.7
		c-2.1-2-5.1-2.9-7.5-2.9C172.7,323.1,170,324.4,168.2,326.2z"/>
	<path d="M209.6,312.9h13.6v5c4.1-5.3,9-6.1,13-6.1c3.7,0,8.5,0.7,12.1,4.2c4,4,4.2,9,4.2,12.3v26.6h-13.6v-21.6
		c0-2.7-0.1-6.2-2.3-8.4c-1-1-2.7-1.9-5.2-1.9c-2.8,0-4.6,1.1-5.7,2.3c-2.3,2.3-2.6,5.3-2.6,8v21.6h-13.6V312.9z"/>
</g>
</svg>
